<mxfile host="app.diagrams.net" modified="2023-08-11T15:20:31.380Z" agent="Mozilla/5.0 (X11; Ubuntu; Linux x86_64; rv:109.0) Gecko/20100101 Firefox/115.0" etag="WYR-h5LoD9qKQwwF2T4f" version="21.6.7" type="device" pages="2">
  <diagram name="aws_pipeline_ci" id="gr_-7gkoe9DKIj0seaxd">
    <mxGraphModel dx="1434" dy="795" grid="1" gridSize="10" guides="1" tooltips="1" connect="1" arrows="1" fold="1" page="1" pageScale="1" pageWidth="850" pageHeight="1100" math="0" shadow="0">
      <root>
        <mxCell id="0" />
        <mxCell id="1" parent="0" />
        <mxCell id="DX9WPFt5d9-wqKPaJcNl-1" value="" style="sketch=0;points=[[0,0,0],[0.25,0,0],[0.5,0,0],[0.75,0,0],[1,0,0],[0,1,0],[0.25,1,0],[0.5,1,0],[0.75,1,0],[1,1,0],[0,0.25,0],[0,0.5,0],[0,0.75,0],[1,0.25,0],[1,0.5,0],[1,0.75,0]];outlineConnect=0;fontColor=#232F3E;gradientColor=#FE5151;gradientDirection=north;fillColor=#BE0917;strokeColor=#ffffff;dashed=0;verticalLabelPosition=bottom;verticalAlign=top;align=center;html=1;fontSize=12;fontStyle=0;aspect=fixed;shape=mxgraph.aws4.resourceIcon;resIcon=mxgraph.aws4.robomaker;" parent="1" vertex="1">
          <mxGeometry x="360" y="201.5" width="78" height="78" as="geometry" />
        </mxCell>
        <mxCell id="DX9WPFt5d9-wqKPaJcNl-3" value="" style="outlineConnect=0;dashed=0;verticalLabelPosition=bottom;verticalAlign=top;align=center;html=1;shape=mxgraph.aws3.cloudwatch;fillColor=#759C3E;gradientColor=none;" parent="1" vertex="1">
          <mxGeometry x="564" y="191" width="82.5" height="93" as="geometry" />
        </mxCell>
        <mxCell id="DX9WPFt5d9-wqKPaJcNl-5" value="" style="sketch=0;points=[[0,0,0],[0.25,0,0],[0.5,0,0],[0.75,0,0],[1,0,0],[0,1,0],[0.25,1,0],[0.5,1,0],[0.75,1,0],[1,1,0],[0,0.25,0],[0,0.5,0],[0,0.75,0],[1,0.25,0],[1,0.5,0],[1,0.75,0]];outlineConnect=0;fontColor=#232F3E;gradientColor=#F78E04;gradientDirection=north;fillColor=#D05C17;strokeColor=#ffffff;dashed=0;verticalLabelPosition=bottom;verticalAlign=top;align=center;html=1;fontSize=12;fontStyle=0;aspect=fixed;shape=mxgraph.aws4.resourceIcon;resIcon=mxgraph.aws4.ecr;" parent="1" vertex="1">
          <mxGeometry x="160" y="198.5" width="78" height="78" as="geometry" />
        </mxCell>
        <mxCell id="DX9WPFt5d9-wqKPaJcNl-7" value="" style="edgeStyle=orthogonalEdgeStyle;html=1;endArrow=block;elbow=vertical;startArrow=none;endFill=1;strokeColor=#545B64;rounded=0;entryX=0;entryY=0.5;entryDx=0;entryDy=0;entryPerimeter=0;" parent="1" target="DX9WPFt5d9-wqKPaJcNl-1" edge="1">
          <mxGeometry width="100" relative="1" as="geometry">
            <mxPoint x="240" y="240.5" as="sourcePoint" />
            <mxPoint x="345" y="240" as="targetPoint" />
          </mxGeometry>
        </mxCell>
        <mxCell id="DX9WPFt5d9-wqKPaJcNl-8" value="" style="edgeStyle=orthogonalEdgeStyle;html=1;endArrow=block;elbow=vertical;startArrow=none;endFill=1;strokeColor=#545B64;rounded=0;exitX=1;exitY=0.5;exitDx=0;exitDy=0;exitPerimeter=0;" parent="1" source="DX9WPFt5d9-wqKPaJcNl-1" edge="1">
          <mxGeometry width="100" relative="1" as="geometry">
            <mxPoint x="478" y="240" as="sourcePoint" />
            <mxPoint x="560" y="240" as="targetPoint" />
          </mxGeometry>
        </mxCell>
        <mxCell id="DX9WPFt5d9-wqKPaJcNl-10" value="" style="shape=image;verticalLabelPosition=bottom;labelBackgroundColor=default;verticalAlign=top;aspect=fixed;imageAspect=0;image=https://raw.githubusercontent.com/github/explore/2c7e603b797535e5ad8b4beb575ab3b7354666e1/topics/actions/actions.png;" parent="1" vertex="1">
          <mxGeometry x="346" y="640" width="128" height="128" as="geometry" />
        </mxCell>
        <mxCell id="DX9WPFt5d9-wqKPaJcNl-14" value="" style="edgeStyle=orthogonalEdgeStyle;rounded=0;orthogonalLoop=1;jettySize=auto;html=1;" parent="1" source="DX9WPFt5d9-wqKPaJcNl-11" target="DX9WPFt5d9-wqKPaJcNl-12" edge="1">
          <mxGeometry relative="1" as="geometry" />
        </mxCell>
        <mxCell id="DX9WPFt5d9-wqKPaJcNl-11" value="Docker image build" style="rounded=1;whiteSpace=wrap;html=1;" parent="1" vertex="1">
          <mxGeometry x="139" y="520" width="120" height="60" as="geometry" />
        </mxCell>
        <mxCell id="DX9WPFt5d9-wqKPaJcNl-15" value="" style="edgeStyle=orthogonalEdgeStyle;rounded=0;orthogonalLoop=1;jettySize=auto;html=1;" parent="1" source="DX9WPFt5d9-wqKPaJcNl-12" target="DX9WPFt5d9-wqKPaJcNl-13" edge="1">
          <mxGeometry relative="1" as="geometry" />
        </mxCell>
        <mxCell id="uRPonmsysnpkSJ7deBAs-2" style="edgeStyle=orthogonalEdgeStyle;rounded=0;orthogonalLoop=1;jettySize=auto;html=1;entryX=0.5;entryY=1;entryDx=0;entryDy=0;entryPerimeter=0;" parent="1" source="DX9WPFt5d9-wqKPaJcNl-12" target="DX9WPFt5d9-wqKPaJcNl-1" edge="1">
          <mxGeometry relative="1" as="geometry" />
        </mxCell>
        <mxCell id="sWr6WuqjFac8Sj9QXz5e-3" style="edgeStyle=orthogonalEdgeStyle;rounded=0;orthogonalLoop=1;jettySize=auto;html=1;" edge="1" parent="1" source="DX9WPFt5d9-wqKPaJcNl-12" target="DX9WPFt5d9-wqKPaJcNl-3">
          <mxGeometry relative="1" as="geometry">
            <Array as="points">
              <mxPoint x="399" y="420" />
              <mxPoint x="605" y="420" />
            </Array>
          </mxGeometry>
        </mxCell>
        <mxCell id="DX9WPFt5d9-wqKPaJcNl-12" value="Trigger RoboMaker jobs" style="rounded=1;whiteSpace=wrap;html=1;" parent="1" vertex="1">
          <mxGeometry x="339" y="520" width="120" height="60" as="geometry" />
        </mxCell>
        <mxCell id="DX9WPFt5d9-wqKPaJcNl-13" value="Process sim job results" style="rounded=1;whiteSpace=wrap;html=1;" parent="1" vertex="1">
          <mxGeometry x="560" y="520" width="120" height="60" as="geometry" />
        </mxCell>
        <mxCell id="DX9WPFt5d9-wqKPaJcNl-16" value="" style="edgeStyle=orthogonalEdgeStyle;html=1;endArrow=block;elbow=vertical;startArrow=none;endFill=1;strokeColor=#545B64;rounded=0;exitX=0.5;exitY=0;exitDx=0;exitDy=0;" parent="1" source="DX9WPFt5d9-wqKPaJcNl-11" edge="1">
          <mxGeometry width="100" relative="1" as="geometry">
            <mxPoint x="160" y="430" as="sourcePoint" />
            <mxPoint x="199" y="280" as="targetPoint" />
          </mxGeometry>
        </mxCell>
        <mxCell id="DX9WPFt5d9-wqKPaJcNl-20" value="AWS ECR" style="text;html=1;strokeColor=none;fillColor=none;align=center;verticalAlign=middle;whiteSpace=wrap;rounded=0;" parent="1" vertex="1">
          <mxGeometry x="169" y="160" width="60" height="30" as="geometry" />
        </mxCell>
        <mxCell id="DX9WPFt5d9-wqKPaJcNl-21" value="AWS RoboMaker" style="text;html=1;strokeColor=none;fillColor=none;align=center;verticalAlign=middle;whiteSpace=wrap;rounded=0;" parent="1" vertex="1">
          <mxGeometry x="369" y="160" width="60" height="30" as="geometry" />
        </mxCell>
        <mxCell id="DX9WPFt5d9-wqKPaJcNl-22" value="AWS Cloudwatch" style="text;html=1;strokeColor=none;fillColor=none;align=center;verticalAlign=middle;whiteSpace=wrap;rounded=0;" parent="1" vertex="1">
          <mxGeometry x="570" y="160" width="60" height="30" as="geometry" />
        </mxCell>
        <mxCell id="DX9WPFt5d9-wqKPaJcNl-24" value="" style="shape=curlyBracket;whiteSpace=wrap;html=1;rounded=1;labelPosition=left;verticalLabelPosition=middle;align=right;verticalAlign=middle;rotation=-90;size=0.5;" parent="1" vertex="1">
          <mxGeometry x="400" y="320" width="20" height="585" as="geometry" />
        </mxCell>
        <mxCell id="DX9WPFt5d9-wqKPaJcNl-26" value="Github Actions" style="text;html=1;strokeColor=none;fillColor=none;align=center;verticalAlign=middle;whiteSpace=wrap;rounded=0;" parent="1" vertex="1">
          <mxGeometry x="378" y="780" width="60" height="30" as="geometry" />
        </mxCell>
      </root>
    </mxGraphModel>
  </diagram>
  <diagram id="F7OnJxQ9yfVe9xlyEAoL" name="entire_pipeline_ci">
    <mxGraphModel dx="1114" dy="593" grid="1" gridSize="10" guides="1" tooltips="1" connect="1" arrows="1" fold="1" page="1" pageScale="1" pageWidth="850" pageHeight="1100" math="0" shadow="0">
      <root>
        <mxCell id="0" />
        <mxCell id="1" parent="0" />
        <mxCell id="AGFo76XM91c2Bm-a0bSl-1" value="" style="shape=image;verticalLabelPosition=bottom;labelBackgroundColor=default;verticalAlign=top;aspect=fixed;imageAspect=0;image=https://raw.githubusercontent.com/github/explore/2c7e603b797535e5ad8b4beb575ab3b7354666e1/topics/actions/actions.png;" vertex="1" parent="1">
          <mxGeometry x="346" y="640" width="128" height="128" as="geometry" />
        </mxCell>
        <mxCell id="AGFo76XM91c2Bm-a0bSl-2" value="" style="edgeStyle=orthogonalEdgeStyle;rounded=0;orthogonalLoop=1;jettySize=auto;html=1;" edge="1" parent="1" source="AGFo76XM91c2Bm-a0bSl-3" target="AGFo76XM91c2Bm-a0bSl-5">
          <mxGeometry relative="1" as="geometry" />
        </mxCell>
        <mxCell id="AGFo76XM91c2Bm-a0bSl-3" value="Docker image build" style="rounded=1;whiteSpace=wrap;html=1;" vertex="1" parent="1">
          <mxGeometry x="270" y="520" width="120" height="60" as="geometry" />
        </mxCell>
        <mxCell id="AGFo76XM91c2Bm-a0bSl-4" value="" style="edgeStyle=orthogonalEdgeStyle;rounded=0;orthogonalLoop=1;jettySize=auto;html=1;" edge="1" parent="1" source="AGFo76XM91c2Bm-a0bSl-5" target="AGFo76XM91c2Bm-a0bSl-6">
          <mxGeometry relative="1" as="geometry" />
        </mxCell>
        <mxCell id="AGFo76XM91c2Bm-a0bSl-5" value="Trigger RoboMaker jobs" style="rounded=1;whiteSpace=wrap;html=1;" vertex="1" parent="1">
          <mxGeometry x="417" y="520" width="120" height="60" as="geometry" />
        </mxCell>
        <mxCell id="AGFo76XM91c2Bm-a0bSl-6" value="Process sim job results" style="rounded=1;whiteSpace=wrap;html=1;" vertex="1" parent="1">
          <mxGeometry x="564" y="520" width="120" height="60" as="geometry" />
        </mxCell>
        <mxCell id="AGFo76XM91c2Bm-a0bSl-7" value="" style="shape=curlyBracket;whiteSpace=wrap;html=1;rounded=1;labelPosition=left;verticalLabelPosition=middle;align=right;verticalAlign=middle;rotation=-90;size=0.5;" vertex="1" parent="1">
          <mxGeometry x="400" y="320" width="20" height="585" as="geometry" />
        </mxCell>
        <mxCell id="AGFo76XM91c2Bm-a0bSl-9" value="" style="edgeStyle=orthogonalEdgeStyle;rounded=0;orthogonalLoop=1;jettySize=auto;html=1;" edge="1" parent="1" source="AGFo76XM91c2Bm-a0bSl-8" target="AGFo76XM91c2Bm-a0bSl-3">
          <mxGeometry relative="1" as="geometry" />
        </mxCell>
        <mxCell id="AGFo76XM91c2Bm-a0bSl-8" value="Workspace build and test" style="rounded=1;whiteSpace=wrap;html=1;" vertex="1" parent="1">
          <mxGeometry x="120" y="520" width="120" height="60" as="geometry" />
        </mxCell>
        <mxCell id="AGFo76XM91c2Bm-a0bSl-10" value="" style="shape=curlyBracket;whiteSpace=wrap;html=1;rounded=1;labelPosition=left;verticalLabelPosition=middle;align=right;verticalAlign=middle;rotation=90;size=0.5;" vertex="1" parent="1">
          <mxGeometry x="172.5" y="435.5" width="20" height="131" as="geometry" />
        </mxCell>
        <mxCell id="AGFo76XM91c2Bm-a0bSl-11" value="" style="shape=curlyBracket;whiteSpace=wrap;html=1;rounded=1;labelPosition=left;verticalLabelPosition=middle;align=right;verticalAlign=middle;rotation=90;size=0.5;" vertex="1" parent="1">
          <mxGeometry x="471.5" y="285" width="20" height="430" as="geometry" />
        </mxCell>
        <mxCell id="AGFo76XM91c2Bm-a0bSl-13" value="Using the hosted runners in Github Actions, the workspace is built and tested as in a developer workflow" style="text;html=1;strokeColor=none;fillColor=none;align=left;verticalAlign=middle;whiteSpace=wrap;rounded=0;" vertex="1" parent="1">
          <mxGeometry x="120" y="380" width="137.5" height="100" as="geometry" />
        </mxCell>
        <mxCell id="AGFo76XM91c2Bm-a0bSl-15" value="Using the hosted runners in Github Actions and AWS, the different docker images are built and then tests are run. The different services of AWS are controlled from the Github Actions with custom automation.&amp;nbsp;&amp;nbsp;" style="text;html=1;strokeColor=none;fillColor=none;align=left;verticalAlign=middle;whiteSpace=wrap;rounded=0;" vertex="1" parent="1">
          <mxGeometry x="279.5" y="366" width="400.5" height="100" as="geometry" />
        </mxCell>
        <mxCell id="kL4YvQBKdu6OPCubzGQ9-1" value="Github Actions" style="text;html=1;strokeColor=none;fillColor=none;align=center;verticalAlign=middle;whiteSpace=wrap;rounded=0;" vertex="1" parent="1">
          <mxGeometry x="378" y="780" width="60" height="30" as="geometry" />
        </mxCell>
      </root>
    </mxGraphModel>
  </diagram>
</mxfile>
